# xmcd
#
# Track frame offsets:
#	150
#	16489
#	31895
#	47172
#	62649
#	78296
#	93696
#	114047
#	131256
#	147103
#	167255
#	180903
#	196631
#	212262
#	229764
#	247930
#	264159
#	283090
#	300755
#	315209
#	340828
#
# Disc length: 4777 seconds
#
# Revision: 0
# Processed by: cddbd v1.5.2PL0 Copyright (c) Steve Scherf et al.
# Submitted via: EasyCDDAExtractor 16.0.9.1
#
DISCID=f512a715
DTITLE=Various Artist - Viva Martini
DYEAR=2003
DGENRE=Dance, Pop
TTITLE0=Girls Aloud - No Good Advice
TTITLE1=The Cheeky Girls - Take Your Shoes Off
TTITLE2=Scooter - The Night
TTITLE3=In-Grid - In Tango
TTITLE4=Marc Et Claude - Loving You 2003
TTITLE5=Ricky Martin - Jaleo
TTITLE6=Justin Timberlake - Rock Your Body
TTITLE7=Planet Funk - Who Said
TTITLE8=Bro'Sis - Oh No!
TTITLE9=Madonna - American Life (Remix)
TTITLE10=Daniel K. - You Drive Me Crazy
TTITLE11=Marilyn Manson - Mobscene
TTITLE12=Gareth Gates - Spirit In The Sky
TTITLE13=Wolfsheim - Kein Zuruck
TTITLE14=Celine Dion - I Drove All Night
TTITLE15=ATB - I Don't Wanna Stop
TTITLE16=Sugababes - Shape
TTITLE17=Brainstorm - Colder
TTITLE18=Paul Van Dyk - Nothing But You
TTITLE19=Eminem - Sing For The Moment
TTITLE20=Tomcraft - Into The Light
EXTD=
EXTT0=
EXTT1=
EXTT2=
EXTT3=
EXTT4=
EXTT5=
EXTT6=
EXTT7=
EXTT8=
EXTT9=
EXTT10=
EXTT11=
EXTT12=
EXTT13=
EXTT14=
EXTT15=
EXTT16=
EXTT17=
EXTT18=
EXTT19=
EXTT20=
PLAYORDER=
